<svg id="Layer_2" data-name="Layer 2" xmlns="http://www.w3.org/2000/svg" viewBox="0 0 128 128"><title>Brief Case</title><g id="_03-Brief_Case" data-name="03-Brief Case"><path d="M108,30H82V23a6.006,6.006,0,0,0-6-6H52a6.006,6.006,0,0,0-6,6v7H20a6.006,6.006,0,0,0-6,6V92a6.006,6.006,0,0,0,6,6h88a6.006,6.006,0,0,0,6-6V36A6.006,6.006,0,0,0,108,30ZM50,23a2,2,0,0,1,2-2H76a2,2,0,0,1,2,2v7H50ZM18,36a2,2,0,0,1,2-2h88a2,2,0,0,1,2,2V60a2,2,0,0,1-2,2H98V58a6.006,6.006,0,0,0-6-6H87a6.006,6.006,0,0,0-6,6v4H47V58a6.006,6.006,0,0,0-6-6H36a6.006,6.006,0,0,0-6,6v4H20a2,2,0,0,1-2-2ZM85,58a2,2,0,0,1,2-2h5a2,2,0,0,1,2,2V70a2,2,0,0,1-2,2H87a2,2,0,0,1-2-2ZM34,58a2,2,0,0,1,2-2h5a2,2,0,0,1,2,2V70a2,2,0,0,1-2,2H36a2,2,0,0,1-2-2Zm74,36H20a2,2,0,0,1-2-2V65.65c1.314.467,1.109.35,12,.35v4a6.006,6.006,0,0,0,6,6h5a6.006,6.006,0,0,0,6-6V66H81v4a6.006,6.006,0,0,0,6,6h5a6.006,6.006,0,0,0,6-6V66c10.88,0,10.686.117,12-.35V92A2,2,0,0,1,108,94Z" style="fill:#4d4d4d"/></g></svg>