<svg id="Layer_2" data-name="Layer 2" xmlns="http://www.w3.org/2000/svg" viewBox="0 0 128 128"><title>Growth Chart</title><g id="_17-Growth_Chart" data-name="17-Growth Chart"><path d="M109,94H34V19a2,2,0,0,0-4,0V94H19a2,2,0,0,0,0,4H30v11a2,2,0,0,0,4,0V98h75A2,2,0,0,0,109,94Z" style="fill:#4d4d4d"/><path d="M41.808,71.934,55.015,56.652A6.989,6.989,0,0,0,63.5,54.193l13.005,4.1A7,7,0,1,0,88.572,53.54l8.615-14.565a7,7,0,1,0-3.441-2.039L85.105,51.544a6.972,6.972,0,0,0-7.425,2.924L64.741,50.391A7,7,0,1,0,51.934,54.1L38.782,69.318A2,2,0,0,0,41.808,71.934ZM101.877,32.19c0,3.964-6,3.966-6,0S101.877,28.225,101.877,32.19ZM86.5,58.351c0,3.964-6,3.965-6,0S86.5,54.385,86.5,58.351ZM60.75,50.209c0,3.964-6,3.966-6,0S60.75,46.243,60.75,50.209Z" style="fill:#4d4d4d"/></g></svg>