<svg id="Layer_2" data-name="Layer 2" xmlns="http://www.w3.org/2000/svg" viewBox="0 0 128 128"><title>Headphone</title><g id="_11-Headphone" data-name="11-Headphone"><path d="M102,59V52a38,38,0,0,0-76,0v7c-4.187,0-6.5,2.907-6.5,6V89a6.006,6.006,0,0,0,6,6h5a6.006,6.006,0,0,0,6-6V65c0-2.928-2.146-6-6.5-6V52a34,34,0,0,1,68,0v7c-4.187,0-6.5,2.907-6.5,6V89a6.006,6.006,0,0,0,6,6h.15A6,6,0,0,1,92,99H77.6c-1.6-4.5-6.095-4-7.65-4a6,6,0,1,0,0,12c1.533,0,6.047.513,7.65-4H92a10.016,10.016,0,0,0,9.8-8c4.5,0,6.7-2.953,6.7-6V65C108.5,62.072,106.354,59,102,59ZM32.5,65V89a2,2,0,0,1-2,2h-5a2,2,0,0,1-2-2V65a2,2,0,0,1,2-2h5A2,2,0,0,1,32.5,65Zm39.448,38h-2a2,2,0,0,1,0-4h2A2,2,0,0,1,71.948,103ZM104.5,89a2,2,0,0,1-2,2h-5a2,2,0,0,1-2-2V65a2,2,0,0,1,2-2h5a2,2,0,0,1,2,2Z" style="fill:#4d4d4d"/></g></svg>