<svg id="Layer_2" data-name="Layer 2" xmlns="http://www.w3.org/2000/svg" viewBox="0 0 128 128"><title>Monitor</title><g id="_19-Monitor" data-name="19-Monitor"><path d="M108,30H20a6.006,6.006,0,0,0-6,6V92a6.006,6.006,0,0,0,6,6H46v12H40a2,2,0,0,0,0,4H88a2,2,0,0,0,0-4H82V98h26a6.006,6.006,0,0,0,6-6V36A6.006,6.006,0,0,0,108,30ZM20,34h88a2,2,0,0,1,2,2V47.954L96.143,61.812,81.023,52.8a2,2,0,0,0-2.657.563L63.334,74.65l-26.569-12.5c-1.753-.823-1.071-.8-18.765,16.895V36A2,2,0,0,1,20,34Zm58,76H50V98H78Zm30-16H20a2,2,0,0,1-2-2V84.7L36.333,66.364,63.148,78.983a2,2,0,0,0,2.486-.655L80.566,57.187l14.867,8.857a2,2,0,0,0,2.437-.3L110,53.61V92A2,2,0,0,1,108,94Z" style="fill:#4d4d4d"/></g></svg>