<svg id="Layer_2" data-name="Layer 2" xmlns="http://www.w3.org/2000/svg" viewBox="0 0 128 128"><title>Rise Graphic</title><g id="_09-Rise_Graphic" data-name="09-Rise Graphic"><path d="M36,78H20a6.006,6.006,0,0,0-6,6v24a6.006,6.006,0,0,0,6,6H36a6.006,6.006,0,0,0,6-6V84A6.006,6.006,0,0,0,36,78Zm2,30a2,2,0,0,1-2,2H20a2,2,0,0,1-2-2V84a2,2,0,0,1,2-2H36a2,2,0,0,1,2,2Z" style="fill:#4d4d4d"/><path d="M72,62H56a6.006,6.006,0,0,0-6,6v40a6.006,6.006,0,0,0,6,6H72a6.006,6.006,0,0,0,6-6V68A6.006,6.006,0,0,0,72,62Zm2,46a2,2,0,0,1-2,2H56a2,2,0,0,1-2-2V68a2,2,0,0,1,2-2H72a2,2,0,0,1,2,2Z" style="fill:#4d4d4d"/><path d="M108,38H92a6.006,6.006,0,0,0-6,6v64a6.006,6.006,0,0,0,6,6h16a6.006,6.006,0,0,0,6-6V44A6.006,6.006,0,0,0,108,38Zm2,70a2,2,0,0,1-2,2H92a2,2,0,0,1-2-2V44a2,2,0,0,1,2-2h16a2,2,0,0,1,2,2Z" style="fill:#4d4d4d"/><path d="M17.727,62.839c7.325-5.055,32.292-21.294,52.394-22.683L71.536,45.9a2,2,0,0,0,3.653.557L86.278,28.124a2,2,0,0,0-.675-2.747L67.266,14.289a2,2,0,0,0-2.978,2.189l1.337,5.428A84.854,84.854,0,0,0,14.88,60.159,2,2,0,0,0,17.727,62.839ZM68.519,25.29a2,2,0,0,0,1.463-2.42l-.655-2.66,12.494,7.555L74.266,40.258,73.611,37.6a2,2,0,0,0-2-1.521c-16.3.471-35.329,10.338-47.616,17.9A80.831,80.831,0,0,1,68.519,25.29Z" style="fill:#4d4d4d"/></g></svg>